<svg width="1280" height="640" viewBox="0 0 1280 640" fill="none" xmlns="http://www.w3.org/2000/svg">
<g clip-path="url(#clip0_13_3)">
<rect width="1280" height="640" fill="#121212"/>
<g filter="url(#filter0_d_13_3)">
<mask id="path-1-outside-1_13_3" maskUnits="userSpaceOnUse" x="28" y="235" width="124" height="187" fill="black">
<rect fill="white" x="28" y="235" width="124" height="187"/>
<path d="M62.7148 324.008L35.6738 350.795V421H29.0723V236.156H35.6738V342.67L63.2227 313.471L133.936 236.156H143.33L67.5391 319.184L149.17 421H140.664L62.7148 324.008Z"/>
</mask>
<path d="M62.7148 324.008L35.6738 350.795V421H29.0723V236.156H35.6738V342.67L63.2227 313.471L133.936 236.156H143.33L67.5391 319.184L149.17 421H140.664L62.7148 324.008Z" fill="#8B5CF6"/>
<path d="M62.7148 324.008L63.4943 323.381L62.7993 322.517L62.0111 323.297L62.7148 324.008ZM35.6738 350.795L34.9701 350.084L34.6738 350.378V350.795H35.6738ZM35.6738 421V422H36.6738V421H35.6738ZM29.0723 421H28.0723V422H29.0723V421ZM29.0723 236.156V235.156H28.0723V236.156H29.0723ZM35.6738 236.156H36.6738V235.156H35.6738V236.156ZM35.6738 342.67H34.6738V345.187L36.4012 343.356L35.6738 342.67ZM63.2227 313.471L63.95 314.157L63.9553 314.151L63.9606 314.146L63.2227 313.471ZM133.936 236.156V235.156H133.495L133.198 235.481L133.936 236.156ZM143.33 236.156L144.069 236.83L145.597 235.156H143.33V236.156ZM67.5391 319.184L66.8005 318.509L66.2235 319.141L66.7589 319.809L67.5391 319.184ZM149.17 421V422H151.253L149.95 420.374L149.17 421ZM140.664 421L139.885 421.626L140.185 422H140.664V421ZM62.7148 324.008L62.0111 323.297L34.9701 350.084L35.6738 350.795L36.3776 351.505L63.4186 324.718L62.7148 324.008ZM35.6738 350.795H34.6738V421H35.6738H36.6738V350.795H35.6738ZM35.6738 421V420H29.0723V421V422H35.6738V421ZM29.0723 421H30.0723V236.156H29.0723H28.0723V421H29.0723ZM29.0723 236.156V237.156H35.6738V236.156V235.156H29.0723V236.156ZM35.6738 236.156H34.6738V342.67H35.6738H36.6738V236.156H35.6738ZM35.6738 342.67L36.4012 343.356L63.95 314.157L63.2227 313.471L62.4953 312.784L34.9465 341.984L35.6738 342.67ZM63.2227 313.471L63.9606 314.146L134.673 236.831L133.936 236.156L133.198 235.481L62.4847 312.796L63.2227 313.471ZM133.936 236.156V237.156H143.33V236.156V235.156H133.936V236.156ZM143.33 236.156L142.592 235.482L66.8005 318.509L67.5391 319.184L68.2776 319.858L144.069 236.83L143.33 236.156ZM67.5391 319.184L66.7589 319.809L148.39 421.626L149.17 421L149.95 420.374L68.3193 318.558L67.5391 319.184ZM149.17 421V420H140.664V421V422H149.17V421ZM140.664 421L141.444 420.374L63.4943 323.381L62.7148 324.008L61.9354 324.634L139.885 421.626L140.664 421Z" fill="#8B5CF6" mask="url(#path-1-outside-1_13_3)"/>
</g>
<g filter="url(#filter1_d_13_3)">
<mask id="path-3-outside-2_13_3" maskUnits="userSpaceOnUse" x="185" y="235" width="106" height="187" fill="black">
<rect fill="white" x="185" y="235" width="106" height="187"/>
<path d="M186.914 236.156H289.238V243.266H240.869V414.145H289.238V421H186.914V414.145H233.506V243.266H186.914V236.156Z"/>
</mask>
<path d="M186.914 236.156H289.238V243.266H240.869V414.145H289.238V421H186.914V414.145H233.506V243.266H186.914V236.156Z" fill="#8B5CF6"/>
<path d="M186.914 236.156V235.156H185.914V236.156H186.914ZM289.238 236.156H290.238V235.156H289.238V236.156ZM289.238 243.266V244.266H290.238V243.266H289.238ZM240.869 243.266V242.266H239.869V243.266H240.869ZM240.869 414.145H239.869V415.145H240.869V414.145ZM289.238 414.145H290.238V413.145H289.238V414.145ZM289.238 421V422H290.238V421H289.238ZM186.914 421H185.914V422H186.914V421ZM186.914 414.145V413.145H185.914V414.145H186.914ZM233.506 414.145V415.145H234.506V414.145H233.506ZM233.506 243.266H234.506V242.266H233.506V243.266ZM186.914 243.266H185.914V244.266H186.914V243.266ZM186.914 236.156V237.156H289.238V236.156V235.156H186.914V236.156ZM289.238 236.156H288.238V243.266H289.238H290.238V236.156H289.238ZM289.238 243.266V242.266H240.869V243.266V244.266H289.238V243.266ZM240.869 243.266H239.869V414.145H240.869H241.869V243.266H240.869ZM240.869 414.145V415.145H289.238V414.145V413.145H240.869V414.145ZM289.238 414.145H288.238V421H289.238H290.238V414.145H289.238ZM289.238 421V420H186.914V421V422H289.238V421ZM186.914 421H187.914V414.145H186.914H185.914V421H186.914ZM186.914 414.145V415.145H233.506V414.145V413.145H186.914V414.145ZM233.506 414.145H234.506V243.266H233.506H232.506V414.145H233.506ZM233.506 243.266V242.266H186.914V243.266V244.266H233.506V243.266ZM186.914 243.266H187.914V236.156H186.914H185.914V243.266H186.914Z" fill="#8B5CF6" mask="url(#path-3-outside-2_13_3)"/>
</g>
<g filter="url(#filter2_d_13_3)">
<mask id="path-5-outside-3_13_3" maskUnits="userSpaceOnUse" x="986" y="235" width="106" height="187" fill="black">
<rect fill="white" x="986" y="235" width="106" height="187"/>
<path d="M987.914 236.156H1090.24V243.266H1041.87V414.145H1090.24V421H987.914V414.145H1034.51V243.266H987.914V236.156Z"/>
</mask>
<path d="M987.914 236.156H1090.24V243.266H1041.87V414.145H1090.24V421H987.914V414.145H1034.51V243.266H987.914V236.156Z" fill="#8B5CF6"/>
<path d="M987.914 236.156V235.156H986.914V236.156H987.914ZM1090.24 236.156H1091.24V235.156H1090.24V236.156ZM1090.24 243.266V244.266H1091.24V243.266H1090.24ZM1041.87 243.266V242.266H1040.87V243.266H1041.87ZM1041.87 414.145H1040.87V415.145H1041.87V414.145ZM1090.24 414.145H1091.24V413.145H1090.24V414.145ZM1090.24 421V422H1091.24V421H1090.24ZM987.914 421H986.914V422H987.914V421ZM987.914 414.145V413.145H986.914V414.145H987.914ZM1034.51 414.145V415.145H1035.51V414.145H1034.51ZM1034.51 243.266H1035.51V242.266H1034.51V243.266ZM987.914 243.266H986.914V244.266H987.914V243.266ZM987.914 236.156V237.156H1090.24V236.156V235.156H987.914V236.156ZM1090.24 236.156H1089.24V243.266H1090.24H1091.24V236.156H1090.24ZM1090.24 243.266V242.266H1041.87V243.266V244.266H1090.24V243.266ZM1041.87 243.266H1040.87V414.145H1041.87H1042.87V243.266H1041.87ZM1041.87 414.145V415.145H1090.24V414.145V413.145H1041.87V414.145ZM1090.24 414.145H1089.24V421H1090.24H1091.24V414.145H1090.24ZM1090.24 421V420H987.914V421V422H1090.24V421ZM987.914 421H988.914V414.145H987.914H986.914V421H987.914ZM987.914 414.145V415.145H1034.51V414.145V413.145H987.914V414.145ZM1034.51 414.145H1035.51V243.266H1034.51H1033.51V414.145H1034.51ZM1034.51 243.266V242.266H987.914V243.266V244.266H1034.51V243.266ZM987.914 243.266H988.914V236.156H987.914H986.914V243.266H987.914Z" fill="#8B5CF6" mask="url(#path-5-outside-3_13_3)"/>
</g>
<g filter="url(#filter3_d_13_3)">
<mask id="path-7-outside-4_13_3" maskUnits="userSpaceOnUse" x="1138" y="232" width="122" height="193" fill="black">
<rect fill="white" x="1138" y="232" width="122" height="193"/>
<path d="M1258.36 364.379C1257.43 372.504 1255.44 380.163 1252.4 387.357C1249.43 394.551 1245.46 400.814 1240.46 406.146C1235.47 411.563 1229.5 415.837 1222.56 418.969C1215.71 422.1 1207.92 423.624 1199.2 423.539C1192.09 423.539 1185.7 422.354 1180.03 419.984C1174.36 417.615 1169.33 414.441 1164.93 410.463C1160.44 406.485 1156.59 401.83 1153.37 396.498C1150.24 391.166 1147.62 385.495 1145.5 379.486C1143.39 373.477 1141.82 367.341 1140.8 361.078C1139.79 354.73 1139.24 348.51 1139.15 342.416V314.74C1139.24 308.731 1139.79 302.553 1140.8 296.205C1141.82 289.773 1143.39 283.552 1145.5 277.543C1147.62 271.618 1150.28 265.99 1153.5 260.658C1156.72 255.326 1160.52 250.671 1164.93 246.693C1169.33 242.715 1174.36 239.584 1180.03 237.299C1185.7 234.929 1192.09 233.702 1199.2 233.617C1207.84 233.533 1215.62 235.056 1222.56 238.188C1229.5 241.234 1235.47 245.424 1240.46 250.756C1245.46 256.088 1249.43 262.351 1252.4 269.545C1255.44 276.739 1257.43 284.398 1258.36 292.523H1251.63C1250.45 285.414 1248.5 278.686 1245.79 272.338C1243.17 265.99 1239.7 260.447 1235.38 255.707C1231.07 250.967 1225.91 247.243 1219.9 244.535C1213.97 241.742 1207.07 240.388 1199.2 240.473C1192.86 240.557 1187.1 241.7 1181.94 243.9C1176.86 246.016 1172.37 248.894 1168.48 252.533C1164.59 256.257 1161.2 260.574 1158.32 265.482C1155.53 270.391 1153.25 275.554 1151.47 280.971C1149.61 286.472 1148.25 292.1 1147.41 297.855C1146.56 303.611 1146.09 309.154 1146.01 314.486V342.416C1146.09 347.833 1146.56 353.419 1147.41 359.174C1148.25 364.929 1149.61 370.515 1151.47 375.932C1153.25 381.433 1155.53 386.638 1158.32 391.547C1161.12 396.456 1164.5 400.772 1168.48 404.496C1172.37 408.22 1176.86 411.182 1181.94 413.383C1187.02 415.583 1192.77 416.684 1199.2 416.684C1207.16 416.768 1214.14 415.456 1220.15 412.748C1226.16 409.955 1231.32 406.189 1235.64 401.449C1239.87 396.71 1243.3 391.166 1245.92 384.818C1248.55 378.386 1250.45 371.573 1251.63 364.379H1258.36Z"/>
</mask>
<path d="M1258.36 364.379C1257.43 372.504 1255.44 380.163 1252.4 387.357C1249.43 394.551 1245.46 400.814 1240.46 406.146C1235.47 411.563 1229.5 415.837 1222.56 418.969C1215.71 422.1 1207.92 423.624 1199.2 423.539C1192.09 423.539 1185.7 422.354 1180.03 419.984C1174.36 417.615 1169.33 414.441 1164.93 410.463C1160.44 406.485 1156.59 401.83 1153.37 396.498C1150.24 391.166 1147.62 385.495 1145.5 379.486C1143.39 373.477 1141.82 367.341 1140.8 361.078C1139.79 354.73 1139.24 348.51 1139.15 342.416V314.74C1139.24 308.731 1139.79 302.553 1140.8 296.205C1141.82 289.773 1143.39 283.552 1145.5 277.543C1147.62 271.618 1150.28 265.99 1153.5 260.658C1156.72 255.326 1160.52 250.671 1164.93 246.693C1169.33 242.715 1174.36 239.584 1180.03 237.299C1185.7 234.929 1192.09 233.702 1199.2 233.617C1207.84 233.533 1215.62 235.056 1222.56 238.188C1229.5 241.234 1235.47 245.424 1240.46 250.756C1245.46 256.088 1249.43 262.351 1252.4 269.545C1255.44 276.739 1257.43 284.398 1258.36 292.523H1251.63C1250.45 285.414 1248.5 278.686 1245.79 272.338C1243.17 265.99 1239.7 260.447 1235.38 255.707C1231.07 250.967 1225.91 247.243 1219.9 244.535C1213.97 241.742 1207.07 240.388 1199.2 240.473C1192.86 240.557 1187.1 241.7 1181.94 243.9C1176.86 246.016 1172.37 248.894 1168.48 252.533C1164.59 256.257 1161.2 260.574 1158.32 265.482C1155.53 270.391 1153.25 275.554 1151.47 280.971C1149.61 286.472 1148.25 292.1 1147.41 297.855C1146.56 303.611 1146.09 309.154 1146.01 314.486V342.416C1146.09 347.833 1146.56 353.419 1147.41 359.174C1148.25 364.929 1149.61 370.515 1151.47 375.932C1153.25 381.433 1155.53 386.638 1158.32 391.547C1161.12 396.456 1164.5 400.772 1168.48 404.496C1172.37 408.22 1176.86 411.182 1181.94 413.383C1187.02 415.583 1192.77 416.684 1199.2 416.684C1207.16 416.768 1214.14 415.456 1220.15 412.748C1226.16 409.955 1231.32 406.189 1235.64 401.449C1239.87 396.71 1243.3 391.166 1245.92 384.818C1248.55 378.386 1250.45 371.573 1251.63 364.379H1258.36Z" fill="#8B5CF6"/>
<path d="M1258.36 364.379L1259.36 364.493L1259.48 363.379H1258.36V364.379ZM1252.4 387.357L1251.48 386.967L1251.47 386.977L1252.4 387.357ZM1240.46 406.146L1239.73 405.463L1239.73 405.469L1240.46 406.146ZM1222.56 418.969L1222.15 418.057L1222.15 418.059L1222.56 418.969ZM1199.2 423.539L1199.21 422.539H1199.2V423.539ZM1164.93 410.463L1165.6 409.721L1165.59 409.715L1164.93 410.463ZM1153.37 396.498L1152.51 397.005L1152.52 397.015L1153.37 396.498ZM1140.8 361.078L1139.82 361.236L1139.82 361.238L1140.8 361.078ZM1139.15 342.416H1138.15L1138.15 342.43L1139.15 342.416ZM1139.15 314.74L1138.15 314.726V314.74H1139.15ZM1140.8 296.205L1141.79 296.363L1141.79 296.361L1140.8 296.205ZM1145.5 277.543L1144.56 277.207L1144.56 277.211L1145.5 277.543ZM1153.5 260.658L1154.36 261.175L1153.5 260.658ZM1180.03 237.299L1180.41 238.226L1180.42 238.221L1180.03 237.299ZM1199.2 233.617L1199.19 232.617L1199.19 232.617L1199.2 233.617ZM1222.56 238.188L1222.15 239.099L1222.16 239.103L1222.56 238.188ZM1252.4 269.545L1251.47 269.926L1251.48 269.935L1252.4 269.545ZM1258.36 292.523V293.523H1259.48L1259.36 292.41L1258.36 292.523ZM1251.63 292.523L1250.65 292.688L1250.79 293.523H1251.63V292.523ZM1245.79 272.338L1244.87 272.72L1244.88 272.73L1245.79 272.338ZM1219.9 244.535L1219.47 245.44L1219.48 245.443L1219.49 245.447L1219.9 244.535ZM1199.2 240.473L1199.19 239.473L1199.19 239.473L1199.2 240.473ZM1181.94 243.9L1182.32 244.824L1182.33 244.82L1181.94 243.9ZM1168.48 252.533L1167.8 251.803L1167.79 251.811L1168.48 252.533ZM1158.32 265.482L1157.46 264.977L1157.46 264.988L1158.32 265.482ZM1151.47 280.971L1152.42 281.291L1152.42 281.282L1151.47 280.971ZM1146.01 314.486L1145.01 314.47L1145.01 314.478V314.486H1146.01ZM1146.01 342.416H1145.01V342.424L1145.01 342.432L1146.01 342.416ZM1147.41 359.174L1146.42 359.319L1147.41 359.174ZM1151.47 375.932L1152.42 375.624L1152.42 375.615L1152.41 375.607L1151.47 375.932ZM1158.32 391.547L1157.46 392.041L1158.32 391.547ZM1168.48 404.496L1169.17 403.773L1169.16 403.766L1168.48 404.496ZM1199.2 416.684L1199.21 415.684H1199.2V416.684ZM1220.15 412.748L1220.56 413.66L1220.57 413.655L1220.15 412.748ZM1235.64 401.449L1236.38 402.123L1236.38 402.115L1235.64 401.449ZM1245.92 384.818L1246.85 385.2L1246.85 385.196L1245.92 384.818ZM1251.63 364.379V363.379H1250.79L1250.65 364.216L1251.63 364.379ZM1258.36 364.379L1257.37 364.265C1256.45 372.299 1254.48 379.866 1251.48 386.967L1252.4 387.357L1253.32 387.747C1256.4 380.461 1258.42 372.708 1259.36 364.493L1258.36 364.379ZM1252.4 387.357L1251.47 386.977C1248.55 394.066 1244.64 400.225 1239.73 405.463L1240.46 406.146L1241.19 406.83C1246.27 401.404 1250.32 395.037 1253.32 387.738L1252.4 387.357ZM1240.46 406.146L1239.73 405.469C1234.83 410.783 1228.97 414.979 1222.15 418.057L1222.56 418.969L1222.97 419.88C1230.03 416.695 1236.11 412.343 1241.2 406.824L1240.46 406.146ZM1222.56 418.969L1222.15 418.059C1215.44 421.121 1207.81 422.623 1199.21 422.539L1199.2 423.539L1199.19 424.539C1208.03 424.625 1215.97 423.08 1222.98 419.878L1222.56 418.969ZM1199.2 423.539V422.539C1192.21 422.539 1185.95 421.373 1180.42 419.062L1180.03 419.984L1179.65 420.907C1185.46 423.335 1191.98 424.539 1199.2 424.539V423.539ZM1180.03 419.984L1180.42 419.062C1174.85 416.734 1169.91 413.62 1165.6 409.721L1164.93 410.463L1164.26 411.205C1168.74 415.261 1173.88 418.495 1179.65 420.907L1180.03 419.984ZM1164.93 410.463L1165.59 409.715C1161.18 405.806 1157.4 401.23 1154.23 395.982L1153.37 396.498L1152.52 397.015C1155.78 402.43 1159.7 407.164 1164.26 411.211L1164.93 410.463ZM1153.37 396.498L1154.24 395.992C1151.14 390.717 1148.54 385.105 1146.45 379.154L1145.5 379.486L1144.56 379.818C1146.7 385.886 1149.35 391.615 1152.51 397.004L1153.37 396.498ZM1145.5 379.486L1146.45 379.154C1144.35 373.201 1142.8 367.122 1141.79 360.918L1140.8 361.078L1139.82 361.238C1140.84 367.56 1142.42 373.754 1144.56 379.818L1145.5 379.486ZM1140.8 361.078L1141.79 360.92C1140.78 354.618 1140.24 348.445 1140.15 342.402L1139.15 342.416L1138.15 342.43C1138.24 348.574 1138.79 354.843 1139.82 361.236L1140.8 361.078ZM1139.15 342.416H1140.15V314.74H1139.15H1138.15V342.416H1139.15ZM1139.15 314.74L1140.15 314.754C1140.24 308.797 1140.78 302.666 1141.79 296.363L1140.8 296.205L1139.82 296.047C1138.79 302.439 1138.24 308.666 1138.15 314.726L1139.15 314.74ZM1140.8 296.205L1141.79 296.361C1142.8 289.987 1144.35 283.826 1146.45 277.875L1145.5 277.543L1144.56 277.211C1142.42 283.278 1140.84 289.558 1139.82 296.049L1140.8 296.205ZM1145.5 277.543L1146.44 277.879C1148.54 272.017 1151.17 266.449 1154.36 261.175L1153.5 260.658L1152.64 260.142C1149.39 265.531 1146.7 271.22 1144.56 277.207L1145.5 277.543ZM1153.5 260.658L1154.36 261.175C1157.52 255.922 1161.27 251.344 1165.6 247.435L1164.93 246.693L1164.26 245.951C1159.78 249.998 1155.91 254.73 1152.64 260.142L1153.5 260.658ZM1164.93 246.693L1165.6 247.435C1169.91 243.539 1174.84 240.469 1180.41 238.226L1180.03 237.299L1179.66 236.371C1173.88 238.699 1168.75 241.892 1164.26 245.951L1164.93 246.693ZM1180.03 237.299L1180.42 238.221C1185.95 235.908 1192.21 234.7 1199.22 234.617L1199.2 233.617L1199.19 232.617C1191.97 232.703 1185.45 233.95 1179.65 236.376L1180.03 237.299ZM1199.2 233.617L1199.21 234.617C1207.72 234.534 1215.36 236.035 1222.15 239.099L1222.56 238.188L1222.97 237.276C1215.88 234.077 1207.95 232.531 1199.19 232.617L1199.2 233.617ZM1222.56 238.188L1222.16 239.103C1228.98 242.098 1234.84 246.21 1239.73 251.439L1240.46 250.756L1241.19 250.072C1236.1 244.638 1230.02 240.371 1222.96 237.272L1222.56 238.188ZM1240.46 250.756L1239.73 251.439C1244.64 256.678 1248.55 262.836 1251.47 269.926L1252.4 269.545L1253.32 269.164C1250.32 261.866 1246.27 255.498 1241.19 250.072L1240.46 250.756ZM1252.4 269.545L1251.48 269.935C1254.48 277.037 1256.45 284.603 1257.37 292.637L1258.36 292.523L1259.36 292.41C1258.42 284.194 1256.4 276.441 1253.32 269.155L1252.4 269.545ZM1258.36 292.523V291.523H1251.63V292.523V293.523H1258.36V292.523ZM1251.63 292.523L1252.62 292.359C1251.42 285.175 1249.46 278.369 1246.71 271.945L1245.79 272.338L1244.88 272.73C1247.55 279.002 1249.48 285.653 1250.65 292.688L1251.63 292.523ZM1245.79 272.338L1246.72 271.956C1244.05 265.509 1240.52 259.865 1236.12 255.034L1235.38 255.707L1234.65 256.38C1238.88 261.028 1242.29 266.472 1244.87 272.72L1245.79 272.338ZM1235.38 255.707L1236.12 255.034C1231.71 250.19 1226.44 246.386 1220.31 243.623L1219.9 244.535L1219.49 245.447C1225.37 248.101 1230.42 251.745 1234.65 256.38L1235.38 255.707ZM1219.9 244.535L1220.32 243.631C1214.24 240.762 1207.18 239.387 1199.19 239.473L1199.2 240.473L1199.21 241.473C1206.96 241.389 1213.71 242.723 1219.47 245.44L1219.9 244.535ZM1199.2 240.473L1199.19 239.473C1192.73 239.559 1186.84 240.723 1181.55 242.98L1181.94 243.9L1182.33 244.82C1187.36 242.677 1192.98 241.556 1199.22 241.473L1199.2 240.473ZM1181.94 243.9L1181.55 242.977C1176.37 245.138 1171.78 248.079 1167.8 251.803L1168.48 252.533L1169.16 253.264C1172.97 249.708 1177.35 246.895 1182.32 244.823L1181.94 243.9ZM1168.48 252.533L1167.79 251.811C1163.83 255.602 1160.38 259.992 1157.46 264.977L1158.32 265.482L1159.19 265.988C1162.02 261.155 1165.35 256.912 1169.17 253.256L1168.48 252.533ZM1158.32 265.482L1157.46 264.988C1154.63 269.955 1152.32 275.179 1150.52 280.659L1151.47 280.971L1152.42 281.282C1154.18 275.929 1156.43 270.827 1159.19 265.977L1158.32 265.482ZM1151.47 280.971L1150.52 280.65C1148.64 286.208 1147.27 291.895 1146.42 297.71L1147.41 297.855L1148.4 298.001C1149.23 292.305 1150.57 286.736 1152.42 281.291L1151.47 280.971ZM1147.41 297.855L1146.42 297.71C1145.56 303.504 1145.1 309.091 1145.01 314.47L1146.01 314.486L1147.01 314.502C1147.09 309.217 1147.56 303.717 1148.4 298.001L1147.41 297.855ZM1146.01 314.486H1145.01V342.416H1146.01H1147.01V314.486H1146.01ZM1146.01 342.416L1145.01 342.432C1145.1 347.895 1145.56 353.524 1146.42 359.319L1147.41 359.174L1148.4 359.028C1147.56 353.313 1147.09 347.771 1147.01 342.4L1146.01 342.416ZM1147.41 359.174L1146.42 359.319C1147.27 365.135 1148.64 370.781 1150.52 376.257L1151.47 375.932L1152.41 375.607C1150.57 370.249 1149.23 364.723 1148.4 359.028L1147.41 359.174ZM1151.47 375.932L1150.52 376.239C1152.32 381.804 1154.63 387.072 1157.46 392.041L1158.32 391.547L1159.19 391.052C1156.43 386.204 1154.18 381.062 1152.42 375.624L1151.47 375.932ZM1158.32 391.547L1157.46 392.041C1160.3 397.034 1163.74 401.431 1167.8 405.226L1168.48 404.496L1169.16 403.766C1165.26 400.113 1161.94 395.877 1159.19 391.052L1158.32 391.547ZM1168.48 404.496L1167.79 405.219C1171.77 409.027 1176.36 412.054 1181.54 414.3L1181.94 413.383L1182.34 412.465C1177.36 410.311 1172.98 407.413 1169.17 403.773L1168.48 404.496ZM1181.94 413.383L1181.54 414.3C1186.76 416.563 1192.66 417.684 1199.2 417.684V416.684V415.684C1192.89 415.684 1187.27 414.603 1182.34 412.465L1181.94 413.383ZM1199.2 416.684L1199.19 417.684C1207.26 417.769 1214.4 416.439 1220.56 413.66L1220.15 412.748L1219.74 411.836C1213.89 414.474 1207.05 415.767 1199.21 415.684L1199.2 416.684ZM1220.15 412.748L1220.57 413.655C1226.7 410.808 1231.97 406.964 1236.38 402.123L1235.64 401.449L1234.9 400.776C1230.68 405.414 1225.62 409.102 1219.73 411.841L1220.15 412.748ZM1235.64 401.449L1236.38 402.115C1240.7 397.285 1244.18 391.644 1246.85 385.2L1245.92 384.818L1245 384.436C1242.41 390.688 1239.04 396.134 1234.89 400.783L1235.64 401.449ZM1245.92 384.818L1246.85 385.196C1249.5 378.691 1251.43 371.806 1252.62 364.541L1251.63 364.379L1250.65 364.216C1249.47 371.34 1247.59 378.081 1245 384.441L1245.92 384.818ZM1251.63 364.379V365.379H1258.36V364.379V363.379H1251.63V364.379Z" fill="#8B5CF6" mask="url(#path-7-outside-4_13_3)"/>
</g>
<g filter="url(#filter4_d_13_3)">
<mask id="path-9-outside-5_13_3" maskUnits="userSpaceOnUse" x="341" y="235" width="114" height="187" fill="black">
<rect fill="white" x="341" y="235" width="114" height="187"/>
<path d="M453.428 421H447.08L349.072 247.836L349.326 421H342.852V236.156H349.199L447.08 408.939L446.826 236.156H453.428V421Z"/>
</mask>
<path d="M453.428 421H447.08L349.072 247.836L349.326 421H342.852V236.156H349.199L447.08 408.939L446.826 236.156H453.428V421Z" fill="#8B5CF6"/>
<path d="M453.428 421V422H454.428V421H453.428ZM447.08 421L446.21 421.493L446.497 422H447.08V421ZM349.072 247.836L349.943 247.343L348.067 244.029L348.072 247.837L349.072 247.836ZM349.326 421V422H350.328L350.326 420.999L349.326 421ZM342.852 421H341.852V422H342.852V421ZM342.852 236.156V235.156H341.852V236.156H342.852ZM349.199 236.156L350.069 235.663L349.782 235.156H349.199V236.156ZM447.08 408.939L446.21 409.432L448.086 412.743L448.08 408.938L447.08 408.939ZM446.826 236.156V235.156H445.825L445.826 236.158L446.826 236.156ZM453.428 236.156H454.428V235.156H453.428V236.156ZM453.428 421V420H447.08V421V422H453.428V421ZM447.08 421L447.95 420.507L349.943 247.343L349.072 247.836L348.202 248.329L446.21 421.493L447.08 421ZM349.072 247.836L348.072 247.837L348.326 421.001L349.326 421L350.326 420.999L350.072 247.834L349.072 247.836ZM349.326 421V420H342.852V421V422H349.326V421ZM342.852 421H343.852V236.156H342.852H341.852V421H342.852ZM342.852 236.156V237.156H349.199V236.156V235.156H342.852V236.156ZM349.199 236.156L348.329 236.649L446.21 409.432L447.08 408.939L447.95 408.447L350.069 235.663L349.199 236.156ZM447.08 408.939L448.08 408.938L447.826 236.155L446.826 236.156L445.826 236.158L446.08 408.941L447.08 408.939ZM446.826 236.156V237.156H453.428V236.156V235.156H446.826V236.156ZM453.428 236.156H452.428V421H453.428H454.428V236.156H453.428Z" fill="#8B5CF6" mask="url(#path-9-outside-5_13_3)"/>
</g>
<g filter="url(#filter5_d_13_3)">
<mask id="path-11-outside-6_13_3" maskUnits="userSpaceOnUse" x="814" y="235" width="131" height="187" fill="black">
<rect fill="white" x="814" y="235" width="131" height="187"/>
<path d="M943.568 243.012H882.758V421H875.902L876.156 243.012H815.219V236.156H943.568V243.012Z"/>
</mask>
<path d="M943.568 243.012H882.758V421H875.902L876.156 243.012H815.219V236.156H943.568V243.012Z" fill="#8B5CF6"/>
<path d="M943.568 243.012V244.012H944.568V243.012H943.568ZM882.758 243.012V242.012H881.758V243.012H882.758ZM882.758 421V422H883.758V421H882.758ZM875.902 421L874.902 420.999L874.901 422H875.902V421ZM876.156 243.012L877.156 243.013L877.158 242.012H876.156V243.012ZM815.219 243.012H814.219V244.012H815.219V243.012ZM815.219 236.156V235.156H814.219V236.156H815.219ZM943.568 236.156H944.568V235.156H943.568V236.156ZM943.568 243.012V242.012H882.758V243.012V244.012H943.568V243.012ZM882.758 243.012H881.758V421H882.758H883.758V243.012H882.758ZM882.758 421V420H875.902V421V422H882.758V421ZM875.902 421L876.902 421.001L877.156 243.013L876.156 243.012L875.156 243.01L874.902 420.999L875.902 421ZM876.156 243.012V242.012H815.219V243.012V244.012H876.156V243.012ZM815.219 243.012H816.219V236.156H815.219H814.219V243.012H815.219ZM815.219 236.156V237.156H943.568V236.156V235.156H815.219V236.156ZM943.568 236.156H942.568V243.012H943.568H944.568V236.156H943.568Z" fill="#8B5CF6" mask="url(#path-11-outside-6_13_3)"/>
</g>
<g filter="url(#filter6_d_13_3)">
<path d="M553 241H685.114M615.766 327.684H728M553 421H685.114" stroke="#8B5CF6" stroke-width="8"/>
</g>
</g>
<defs>
<filter id="filter0_d_13_3" x="8.07227" y="215.156" width="163.181" height="226.844" filterUnits="userSpaceOnUse" color-interpolation-filters="sRGB">
<feFlood flood-opacity="0" result="BackgroundImageFix"/>
<feColorMatrix in="SourceAlpha" type="matrix" values="0 0 0 0 0 0 0 0 0 0 0 0 0 0 0 0 0 0 127 0" result="hardAlpha"/>
<feOffset/>
<feGaussianBlur stdDeviation="10"/>
<feComposite in2="hardAlpha" operator="out"/>
<feColorMatrix type="matrix" values="0 0 0 0 0.545098 0 0 0 0 0.360784 0 0 0 0 0.964706 0 0 0 1 0"/>
<feBlend mode="difference" in2="BackgroundImageFix" result="effect1_dropShadow_13_3"/>
<feBlend mode="normal" in="SourceGraphic" in2="effect1_dropShadow_13_3" result="shape"/>
</filter>
<filter id="filter1_d_13_3" x="165.914" y="215.156" width="144.324" height="226.844" filterUnits="userSpaceOnUse" color-interpolation-filters="sRGB">
<feFlood flood-opacity="0" result="BackgroundImageFix"/>
<feColorMatrix in="SourceAlpha" type="matrix" values="0 0 0 0 0 0 0 0 0 0 0 0 0 0 0 0 0 0 127 0" result="hardAlpha"/>
<feOffset/>
<feGaussianBlur stdDeviation="10"/>
<feComposite in2="hardAlpha" operator="out"/>
<feColorMatrix type="matrix" values="0 0 0 0 0.545098 0 0 0 0 0.360784 0 0 0 0 0.964706 0 0 0 1 0"/>
<feBlend mode="difference" in2="BackgroundImageFix" result="effect1_dropShadow_13_3"/>
<feBlend mode="normal" in="SourceGraphic" in2="effect1_dropShadow_13_3" result="shape"/>
</filter>
<filter id="filter2_d_13_3" x="966.914" y="215.156" width="144.324" height="226.844" filterUnits="userSpaceOnUse" color-interpolation-filters="sRGB">
<feFlood flood-opacity="0" result="BackgroundImageFix"/>
<feColorMatrix in="SourceAlpha" type="matrix" values="0 0 0 0 0 0 0 0 0 0 0 0 0 0 0 0 0 0 127 0" result="hardAlpha"/>
<feOffset/>
<feGaussianBlur stdDeviation="10"/>
<feComposite in2="hardAlpha" operator="out"/>
<feColorMatrix type="matrix" values="0 0 0 0 0.545098 0 0 0 0 0.360784 0 0 0 0 0.964706 0 0 0 1 0"/>
<feBlend mode="difference" in2="BackgroundImageFix" result="effect1_dropShadow_13_3"/>
<feBlend mode="normal" in="SourceGraphic" in2="effect1_dropShadow_13_3" result="shape"/>
</filter>
<filter id="filter3_d_13_3" x="1118.15" y="212.614" width="161.33" height="231.929" filterUnits="userSpaceOnUse" color-interpolation-filters="sRGB">
<feFlood flood-opacity="0" result="BackgroundImageFix"/>
<feColorMatrix in="SourceAlpha" type="matrix" values="0 0 0 0 0 0 0 0 0 0 0 0 0 0 0 0 0 0 127 0" result="hardAlpha"/>
<feOffset/>
<feGaussianBlur stdDeviation="10"/>
<feComposite in2="hardAlpha" operator="out"/>
<feColorMatrix type="matrix" values="0 0 0 0 0.545098 0 0 0 0 0.360784 0 0 0 0 0.964706 0 0 0 1 0"/>
<feBlend mode="difference" in2="BackgroundImageFix" result="effect1_dropShadow_13_3"/>
<feBlend mode="normal" in="SourceGraphic" in2="effect1_dropShadow_13_3" result="shape"/>
</filter>
<filter id="filter4_d_13_3" x="321.852" y="215.156" width="152.576" height="226.844" filterUnits="userSpaceOnUse" color-interpolation-filters="sRGB">
<feFlood flood-opacity="0" result="BackgroundImageFix"/>
<feColorMatrix in="SourceAlpha" type="matrix" values="0 0 0 0 0 0 0 0 0 0 0 0 0 0 0 0 0 0 127 0" result="hardAlpha"/>
<feOffset/>
<feGaussianBlur stdDeviation="10"/>
<feComposite in2="hardAlpha" operator="out"/>
<feColorMatrix type="matrix" values="0 0 0 0 0.545098 0 0 0 0 0.360784 0 0 0 0 0.964706 0 0 0 1 0"/>
<feBlend mode="difference" in2="BackgroundImageFix" result="effect1_dropShadow_13_3"/>
<feBlend mode="normal" in="SourceGraphic" in2="effect1_dropShadow_13_3" result="shape"/>
</filter>
<filter id="filter5_d_13_3" x="794.219" y="215.156" width="170.35" height="226.844" filterUnits="userSpaceOnUse" color-interpolation-filters="sRGB">
<feFlood flood-opacity="0" result="BackgroundImageFix"/>
<feColorMatrix in="SourceAlpha" type="matrix" values="0 0 0 0 0 0 0 0 0 0 0 0 0 0 0 0 0 0 127 0" result="hardAlpha"/>
<feOffset/>
<feGaussianBlur stdDeviation="10"/>
<feComposite in2="hardAlpha" operator="out"/>
<feColorMatrix type="matrix" values="0 0 0 0 0.545098 0 0 0 0 0.360784 0 0 0 0 0.964706 0 0 0 1 0"/>
<feBlend mode="difference" in2="BackgroundImageFix" result="effect1_dropShadow_13_3"/>
<feBlend mode="normal" in="SourceGraphic" in2="effect1_dropShadow_13_3" result="shape"/>
</filter>
<filter id="filter6_d_13_3" x="533" y="217" width="215" height="228" filterUnits="userSpaceOnUse" color-interpolation-filters="sRGB">
<feFlood flood-opacity="0" result="BackgroundImageFix"/>
<feColorMatrix in="SourceAlpha" type="matrix" values="0 0 0 0 0 0 0 0 0 0 0 0 0 0 0 0 0 0 127 0" result="hardAlpha"/>
<feOffset/>
<feGaussianBlur stdDeviation="10"/>
<feComposite in2="hardAlpha" operator="out"/>
<feColorMatrix type="matrix" values="0 0 0 0 0.545098 0 0 0 0 0.360784 0 0 0 0 0.964706 0 0 0 1 0"/>
<feBlend mode="difference" in2="BackgroundImageFix" result="effect1_dropShadow_13_3"/>
<feBlend mode="normal" in="SourceGraphic" in2="effect1_dropShadow_13_3" result="shape"/>
</filter>
<clipPath id="clip0_13_3">
<rect width="1280" height="640" fill="white"/>
</clipPath>
</defs>
</svg>
